<svg width="128" height="128" viewBox="0 0 128 128" fill="none" xmlns="http://www.w3.org/2000/svg">
  <rect width="128" height="128" rx="34" fill="#142033"/>
  <path d="M64 22C51.467 38.133 38 54.064 38 71.44C38 87.662 49.642 98 64 98C78.358 98 90 87.662 90 71.44C90 54.064 76.533 38.133 64 22Z" fill="#D89128"/>
  <path d="M64 36C54.599 47.782 46.272 59.18 46.272 70.456C46.272 80.772 53.478 87.904 64 87.904C74.522 87.904 81.728 80.772 81.728 70.456C81.728 59.18 73.401 47.782 64 36Z" fill="#F5E4C6"/>
  <path d="M36 98H92" stroke="#D89128" stroke-width="7" stroke-linecap="round"/>
</svg>
