<?xml version="1.0" encoding="UTF-8"?>
<svg version="1.1" xmlns="http://www.w3.org/2000/svg" width="1254" height="1254">
<path d="M0 0 C413.82 0 827.64 0 1254 0 C1254 413.82 1254 827.64 1254 1254 C840.18 1254 426.36 1254 0 1254 C0 840.18 0 426.36 0 0 Z " fill="#FDFCFC" transform="translate(0,0)"/>
<path d="M0 0 C5.15400091 3.56664702 8.45989721 8.26162191 12.125 13.25 C12.78806152 14.14533447 13.45112305 15.04066895 14.13427734 15.96313477 C57.56035509 74.89403163 89.75138689 141.77981483 89.5625 216.1875 C89.56301361 217.26152069 89.56352722 218.33554138 89.5640564 219.44210815 C89.53493788 233.83609755 88.78802843 247.87305102 86.3125 262.0625 C86.12966965 263.11538712 86.12966965 263.11538712 85.94314575 264.18954468 C84.2877472 273.41803874 81.86083826 282.35801337 79.1237793 291.31665039 C78.45755105 293.50031007 77.80779519 295.68929224 77.19458008 297.88842773 C76.00694957 302.14010321 74.57679276 306.09062069 72.7265625 310.1015625 C72.28151367 311.06787598 71.83646484 312.03418945 71.37792969 313.02978516 C70.69585449 314.5000415 70.69585449 314.5000415 70 316 C69.58395508 316.90411621 69.16791016 317.80823242 68.73925781 318.73974609 C51.64687587 355.71523954 28.99591595 385.92259192 0.4375 414.75 C-0.85607422 416.06327271 -0.85607422 416.06327271 -2.17578125 417.40307617 C-8.13651683 423.37114978 -14.39992906 428.75425535 -21 434 C-22.37434593 435.121312 -23.74693692 436.24478089 -25.1171875 437.37109375 C-31.24395081 442.37542701 -37.38682038 447.34072248 -43.6875 452.125 C-49.23587596 456.35657969 -54.56462858 460.79756828 -59.86328125 465.3359375 C-62.79947962 467.8459573 -65.80012519 470.26929015 -68.8125 472.6875 C-72.74117422 475.88168295 -76.37089272 479.21054268 -79.85546875 482.8828125 C-81.7288736 484.73233059 -83.64596061 486.4371263 -85.640625 488.15234375 C-90.49597874 492.36902698 -95.02779572 496.88108125 -99.5625 501.4375 C-100.37396484 502.24509766 -101.18542969 503.05269531 -102.02148438 503.88476562 C-110.25927846 512.1358572 -117.68741725 520.9267633 -125 530 C-125.41233887 530.50740723 -125.82467773 531.01481445 -126.24951172 531.53759766 C-138.43252 546.5603595 -149.43580468 562.34286946 -158.95654297 579.18212891 C-159.87902342 580.78923921 -160.8446475 582.37141691 -161.81640625 583.94921875 C-174.29363365 604.2428067 -183.64382004 627.91902567 -187.41796875 651.46484375 C-188.14732672 655.89483677 -189.22329015 660.20363306 -190.3515625 664.546875 C-194.62067038 687.28116032 -193.46097759 713.02251024 -187.48828125 735.328125 C-186.99014203 738.05394281 -187.24702348 739.39836738 -188 742 C-198.40095444 733.10367802 -208.76538589 724.19768787 -218.828125 714.91796875 C-220.849168 713.05424137 -222.88069917 711.20525142 -224.921875 709.36328125 C-232.10636688 702.85966104 -239.01295253 696.09242973 -245.875 689.25 C-247.21292603 687.9189624 -247.21292603 687.9189624 -248.57788086 686.56103516 C-253.0343196 682.09414216 -257.35205528 677.57028708 -261.46240234 672.78271484 C-263.70076977 670.18751653 -266.03908481 667.69527681 -268.375 665.1875 C-272.67195948 660.53614451 -276.74190142 655.74925159 -280.7109375 650.8125 C-282.69312164 648.37705191 -284.72319939 645.99392864 -286.7800293 643.62158203 C-305.16998489 622.304055 -321.21386554 598.68473552 -334.84765625 574.07421875 C-335.90283259 572.17490134 -336.97955567 570.28981465 -338.0625 568.40625 C-344.75499113 556.42453201 -349.8587955 543.70652273 -355 531 C-355.42756592 529.95030029 -355.42756592 529.95030029 -355.86376953 528.87939453 C-360.76350127 516.67262713 -363.76151804 503.72092814 -367 491 C-367.28302979 489.89229248 -367.28302979 489.89229248 -367.57177734 488.76220703 C-371.70676963 472.23509278 -372.38701343 455.20966483 -372.3125 438.25 C-372.31067719 437.38080933 -372.30885437 436.51161865 -372.30697632 435.61608887 C-372.11482124 380.97895071 -351.30494442 333.52825845 -319 290 C-318.5040332 289.32678711 -318.00806641 288.65357422 -317.49707031 287.95996094 C-304.76436592 270.69680168 -291.41436625 254.09195766 -276.9921875 238.20703125 C-275.23806619 236.26373999 -273.52027306 234.29640552 -271.8125 232.3125 C-261.38300405 220.41962266 -250.29505487 209.19111206 -239.125 198 C-238.48971375 197.36212555 -237.85442749 196.7242511 -237.19989014 196.06704712 C-224.90540083 183.73313081 -224.90540083 183.73313081 -218.70898438 178.46386719 C-215.77580446 175.95138908 -212.99620317 173.27468936 -210.1875 170.625 C-205.14434182 165.90126891 -199.97309024 161.43165709 -194.578125 157.109375 C-191.9757371 154.98014854 -189.48424498 152.76550643 -187 150.5 C-182.34083975 146.26439978 -177.52455494 142.26611116 -172.62353516 138.31445312 C-170.79870879 136.8370298 -168.98306697 135.34873231 -167.16796875 133.859375 C-160.35699427 128.27946717 -153.50943749 122.79255131 -146.4296875 117.5546875 C-142.80565618 114.86931793 -139.22753941 112.12472019 -135.64526367 109.3840332 C-127.97993129 103.51978785 -120.28546642 97.70393547 -112.5 92 C-96.09895752 79.9756595 -80.01878017 67.52711489 -64 55 C-63.03126953 54.24396484 -63.03126953 54.24396484 -62.04296875 53.47265625 C-46.15719681 41.07320279 -30.62864299 28.30064231 -15.83203125 14.61328125 C-12.2738662 11.32995377 -8.66929798 8.10032529 -5.05859375 4.875 C-3.3210251 3.29239478 -1.64298058 1.67972456 0 0 Z " fill="#339BF5" transform="translate(759,48)"/>
<path d="M0 0 C0.66 0 1.32 0 2 0 C3.53710937 2.20874023 3.53710937 2.20874023 5.34375 5.30859375 C6.00777832 6.43910156 6.67180664 7.56960938 7.35595703 8.734375 C8.07090934 9.96859287 8.78558421 11.20297149 9.5 12.4375 C10.23359577 13.69437043 10.96781077 14.95087964 11.70263672 16.20703125 C13.15477233 18.69076633 14.60328019 21.17656792 16.04980469 23.66357422 C17.6094987 26.33192404 19.18597713 28.98655832 20.7890625 31.62890625 C25.95116614 40.15773641 30.65465217 48.90508329 35.25 57.75 C35.8289502 58.86310547 36.40790039 59.97621094 37.00439453 61.12304688 C44.2767227 75.24545248 50.48011906 89.53371509 55.75390625 104.5078125 C56.61690254 106.92636636 57.51244034 109.33346191 58.43359375 111.73046875 C65.3928324 130.21740318 69.63938524 149.3784105 73.1328125 168.765625 C73.34768311 169.95333496 73.34768311 169.95333496 73.56689453 171.16503906 C74.59661099 177.90521238 75.1660374 184.57414886 75.23828125 191.390625 C75.24802979 192.16496887 75.25777832 192.93931274 75.26782227 193.73712158 C76.04776712 271.95584134 44.65026912 336.84033802 -4.56738281 396.26318359 C-6.62882132 398.76234405 -8.65416707 401.29045371 -10.6875 403.8125 C-14.52509692 408.50211385 -18.55982756 412.98486249 -22.66015625 417.4453125 C-24.65834848 419.62697815 -26.62148889 421.83011309 -28.5625 424.0625 C-38.38863525 435.3511298 -48.40337221 446.56874169 -59.08813477 457.05517578 C-60.85011376 458.84752985 -62.4809067 460.68907831 -64.10546875 462.60546875 C-69.29201775 468.57354311 -74.98782998 474.03278774 -80.6171875 479.578125 C-85.08437525 484.00457851 -89.38692721 488.48361183 -93.48046875 493.2578125 C-95.54283841 495.62238029 -97.75273176 497.8118704 -100 500 C-103.462758 503.42647161 -106.73625123 506.9154813 -109.8984375 510.6171875 C-112.21863745 513.24789748 -114.61422268 515.79632059 -117.02124023 518.34741211 C-122.50483024 524.16032083 -127.80872378 530.02253881 -132.80078125 536.26953125 C-135.26927384 539.33432046 -137.81728157 542.32230846 -140.375 545.3125 C-146.11689865 552.05355959 -151.573758 559.00407739 -157 566 C-157.74121094 566.95132813 -158.48242188 567.90265625 -159.24609375 568.8828125 C-160.83309833 570.92005379 -162.41790989 572.95894177 -164 575 C-167.79166195 573.36722691 -170.76880703 570.91232078 -173.875 568.25 C-174.46289307 567.74629883 -175.05078613 567.24259766 -175.65649414 566.72363281 C-181.82959897 561.31992494 -187.63944368 555.54878292 -193.4375 549.75 C-193.9093573 549.27904907 -194.3812146 548.80809814 -194.86737061 548.32287598 C-221.0218597 522.16270039 -240.90409153 492.03147379 -253 457 C-253.24443848 456.32710937 -253.48887695 455.65421875 -253.74072266 454.9609375 C-261.81044166 432.5980954 -263.47190164 408.25248369 -263.5 384.6875 C-263.50440094 383.80137024 -263.50880188 382.91524048 -263.51333618 382.0022583 C-263.54907761 364.80284182 -261.45764082 348.14585661 -257.0625 331.5 C-256.80090088 330.48518555 -256.53930176 329.47037109 -256.26977539 328.42480469 C-245.30708503 286.4905739 -221.4821307 249.96121796 -194 217 C-193.01808535 215.81001449 -192.03631048 214.61991362 -191.0546875 213.4296875 C-186.28028221 207.67756026 -181.35092868 202.19868602 -175.984375 196.984375 C-174.18418167 195.18418167 -172.55399829 193.33913233 -170.9375 191.375 C-168.2893724 188.20450202 -165.33675782 185.6092851 -162.19140625 182.94140625 C-159.74059942 180.77019236 -157.47342971 178.46889306 -155.1875 176.125 C-150.99915638 171.89203172 -146.61167434 168.11121061 -141.9609375 164.3984375 C-139.29075628 162.23552026 -136.69340218 160.01530397 -134.10449219 157.75732422 C-128.39314479 152.77964793 -122.55006435 148.06052448 -116.5 143.5 C-109.30321929 138.07031122 -102.43345603 132.36473751 -95.65332031 126.42675781 C-94.08908905 125.07688075 -92.50189562 123.76381069 -90.8984375 122.4609375 C-82.52658885 115.59834354 -74.85218363 108.06831431 -67.1875 100.4375 C-66.65152191 99.9066983 -66.11554382 99.37589661 -65.56332397 98.82901001 C-58.57088838 91.88986082 -52.09863564 84.75386286 -46 77 C-45.39599365 76.25000732 -44.7919873 75.50001465 -44.16967773 74.72729492 C-26.46457678 52.74068294 -9.0006419 27.00192569 0 0 Z " fill="#7CB63A" transform="translate(846,365)"/>
<path d="M0 0 C0.66 0.33 1.32 0.66 2 1 C1.88406494 1.64960693 1.76812988 2.29921387 1.64868164 2.96850586 C1.11696569 5.95764765 0.58970727 8.94755983 0.0625 11.9375 C-0.11990234 12.95908203 -0.30230469 13.98066406 -0.49023438 15.03320312 C-0.66748047 16.04189453 -0.84472656 17.05058594 -1.02734375 18.08984375 C-1.18968506 19.00628662 -1.35202637 19.92272949 -1.51928711 20.86694336 C-2.60809424 27.96326737 -3.15155355 34.90755713 -3.1328125 42.0859375 C-3.13376923 42.90953766 -3.13472595 43.73313782 -3.13571167 44.58169556 C-3.13638652 46.30430173 -3.13458125 48.02691056 -3.13037109 49.74951172 C-3.12497125 52.38905468 -3.13036077 55.0284307 -3.13671875 57.66796875 C-3.13605865 59.34895871 -3.13477891 61.02994856 -3.1328125 62.7109375 C-3.13483673 63.49842377 -3.13686096 64.28591003 -3.13894653 65.09725952 C-3.12503197 68.32637223 -3.02852086 70.91443742 -2 74 C-1.79770764 75.6969094 -1.63353474 77.39849331 -1.4921875 79.1015625 C-0.01378976 95.05609331 3.23414906 109.72804487 8 125 C8.31606201 126.05348633 8.63212402 127.10697266 8.95776367 128.19238281 C17.39036473 156.20237734 29.48130457 183.19931273 45 208 C45.97801359 209.58714778 46.95587145 211.17439152 47.93359375 212.76171875 C53.93526527 222.44164813 60.18705759 231.87271872 67 241 C67.50144531 241.67272949 68.00289063 242.34545898 68.51953125 243.03857422 C74.91613612 251.58488966 81.49016814 259.92809957 88.453125 268.01953125 C90.85394261 270.82907701 93.18351664 273.68332476 95.5 276.5625 C99.4894543 281.45897055 103.6867329 286.12642422 107.98535156 290.74975586 C110.35221619 293.29622581 112.69819282 295.86106142 115.04144287 298.42929077 C121.65640178 305.6562206 128.48945311 312.64413966 135.42871094 319.55908203 C137.2661576 321.39110995 139.0981165 323.22850605 140.9296875 325.06640625 C146.78402779 330.92440029 152.66231174 336.66035877 159 342 C160.15677957 343.00962396 161.31173892 344.02133735 162.46484375 345.03515625 C169.31474676 351.0156184 176.23393903 356.90253789 183.25 362.6875 C183.97695068 363.28763916 184.70390137 363.88777832 185.45288086 364.50610352 C188.25160922 366.80331989 190.98341923 368.98894615 194 371 C195.06811523 373.14111328 195.06811523 373.14111328 196.05859375 375.8203125 C196.62767456 377.31739746 196.62767456 377.31739746 197.20825195 378.84472656 C197.61390381 379.9272168 198.01955566 381.00970703 198.4375 382.125 C216.0874211 427.54696563 244.44125876 466.13978224 279.09008789 500.05371094 C280.41048914 501.35197794 281.70790242 502.67356096 283 504 C283 504.33 283 504.66 283 505 C276.97256253 505.11876724 271.36770824 504.80021006 265.4375 503.75 C264.27468506 503.5497522 264.27468506 503.5497522 263.08837891 503.34545898 C255.94292288 502.07109623 248.94500474 500.35700945 241.93261719 498.49853516 C240.0587794 498.01516265 238.17391166 497.57519419 236.2890625 497.13671875 C227.89853959 495.17316339 219.7431416 492.71108458 211.5625 490 C210.55574219 489.66774414 209.54898437 489.33548828 208.51171875 488.99316406 C203.2089548 487.20506362 198.09487475 485.22729469 193.00952148 482.89355469 C190.15069481 481.62234759 187.20805308 480.64055279 184.25 479.625 C134.18504292 461.55897515 85.95278065 429.66059506 47.43017578 393.32861328 C45.35166551 391.39770633 43.20280234 389.54938903 41.0625 387.6875 C30.34117485 378.04526926 20.96955262 367.13652265 12.27490234 355.66455078 C11.04566452 354.05962097 9.78313627 352.48035758 8.51953125 350.90234375 C-7.65038246 330.56784177 -20.44250383 307.12812794 -30 283 C-30.3192041 282.19836426 -30.6384082 281.39672852 -30.96728516 280.57080078 C-36.56551933 266.3248878 -40.63698142 251.92183798 -44 237 C-44.16870605 236.26668457 -44.33741211 235.53336914 -44.51123047 234.77783203 C-48.19538463 218.59372749 -49.34116372 202.42488617 -49.1875 185.875 C-49.17790969 184.24503668 -49.16847173 182.61507247 -49.15917969 180.98510742 C-49.1315601 177.0270139 -49.08627971 173.06941659 -49.02996826 169.1116333 C-49.00290236 167.20450693 -48.97996309 165.29732309 -48.95751953 163.39013672 C-48.35088046 122.32004637 -37.34052563 79.60499632 -21 42 C-20.72172363 41.34789551 -20.44344727 40.69579102 -20.15673828 40.02392578 C-14.29155917 26.29198398 -7.84854111 12.72530452 0 0 Z " fill="#E70210" transform="translate(374,437)"/>
<path d="M0 0 C26.998125 -0.0825 53.99625 -0.165 81.8125 -0.25 C90.30589111 -0.28641602 98.79928223 -0.32283203 107.55004883 -0.36035156 C118.00134277 -0.37841797 118.00134277 -0.37841797 122.9094696 -0.3817749 C126.30374323 -0.38546937 129.69776115 -0.40032881 133.09196472 -0.42230225 C184.2982037 -0.73884555 184.2982037 -0.73884555 201.4375 14.75 C211.58065596 25.65389266 211.19524376 38.87109181 211.25 52.875 C211.2809375 54.84146484 211.2809375 54.84146484 211.3125 56.84765625 C211.36578082 70.12790022 209.32693397 77.90427983 200.0078125 87.34765625 C196.18057324 90.91004757 191.88215205 93.17845954 187 95 C187.76183594 95.268125 188.52367187 95.53625 189.30859375 95.8125 C199.90966516 99.83587791 207.12415819 104.90860806 212.02734375 115.3125 C214.92189945 123.31030853 215.30802137 130.41355088 215.25 138.875 C215.25773438 139.99519531 215.26546875 141.11539062 215.2734375 142.26953125 C215.24165954 155.8863862 212.82419971 168.37467539 203 178.5 C196.50227902 184.40036952 190.47893367 187.20852476 182.0293045 189.45832062 C180.08386634 189.97761368 178.14373401 190.51666244 176.20391846 191.05657959 C159.57826823 195.23293512 142.56096049 194.51968389 125.55252075 194.40512085 C121.56055521 194.38202623 117.56869342 194.38125157 113.57666016 194.37841797 C101.96771322 194.35758212 90.35885035 194.30173733 78.75 194.25 C52.7625 194.1675 26.775 194.085 0 194 C0 129.98 0 65.96 0 0 Z " fill="#359CF5" transform="translate(549,993)"/>
<path d="M0 0 C1.50790855 -0.01925285 1.50790855 -0.01925285 3.04627991 -0.03889465 C4.12856369 -0.04628159 5.21084747 -0.05366852 6.32592773 -0.0612793 C7.44837387 -0.06935104 8.57082001 -0.07742279 9.72727966 -0.08573914 C12.10528017 -0.09956826 14.48330043 -0.11029565 16.86132812 -0.11816406 C19.28098407 -0.12966079 21.70061513 -0.15007563 24.12011719 -0.1796875 C27.62639511 -0.22259608 31.13191902 -0.23856818 34.63842773 -0.2487793 C35.7065419 -0.26628738 36.77465607 -0.28379547 37.87513733 -0.30183411 C48.5939535 -0.27130994 57.82988371 2.59565426 65.57202148 10.19262695 C70.07779784 15.85449067 72.71324462 22.3223573 75.55053711 28.93676758 C77.13748952 32.61894108 78.76523409 36.28156494 80.40014648 39.94262695 C82.3907104 44.40345474 84.37927397 48.86508711 86.35498047 53.33251953 C92.6667414 67.60149907 99.10096109 81.81399066 105.5637207 96.01513672 C109.14349581 103.89274673 112.69107323 111.76770009 115.96166992 119.77978516 C117.53879318 123.61669626 119.24512374 127.39424138 120.94702148 131.17700195 C121.61441658 132.67667799 122.28107616 134.17668156 122.94702148 135.67700195 C123.25978027 136.38058838 123.57253906 137.0841748 123.89477539 137.80908203 C124.54940055 139.28221647 125.2035417 140.7555662 125.85693359 142.22924805 C128.77011923 148.7959616 131.72199371 155.34497053 134.67944336 161.8918457 C136.3247235 165.54117234 137.9636673 169.19014783 139.52514648 172.8762207 C141.46425268 177.37771724 143.60863698 181.77562674 145.73999023 186.1887207 C146.94702148 189.17700195 146.94702148 189.17700195 146.94702148 193.17700195 C98.9566937 193.58978101 98.9566937 193.58978101 80.94702148 191.17700195 C80.25479492 189.4290332 80.25479492 189.4290332 79.54858398 187.64575195 C78.53869916 185.09681951 77.52098229 182.55192612 76.48510742 180.01342773 C74.40353754 174.90403876 72.43811139 169.78178072 70.61108398 164.57543945 C69.80673805 162.40083392 69.00205668 160.22635242 68.19702148 158.05200195 C67.68002686 156.47902344 67.68002686 156.47902344 67.15258789 154.87426758 C66.00912438 151.87719475 65.02348 149.62699419 62.94702148 147.17700195 C58.967158 145.58913342 55.20329469 145.30227067 50.94702148 145.17700195 C49.75592773 145.08676758 48.56483398 144.9965332 47.33764648 144.90356445 C45.78303711 144.85329102 45.78303711 144.85329102 44.19702148 144.80200195 C36.29329365 144.35477455 28.60675527 143.05134275 20.8137207 141.69360352 C13.87836039 140.4854446 6.96609624 139.46822494 -0.02954102 138.66918945 C-3.19753812 138.15346899 -6.01858984 137.20637904 -9.05297852 136.17700195 C-11.22458149 135.8442958 -11.22458149 135.8442958 -13.30297852 135.73950195 C-18.44757506 135.26623413 -23.16628808 133.79909752 -28.05297852 132.17700195 C-28.29661133 132.85504883 -28.54024414 133.5330957 -28.79125977 134.23168945 C-30.31160289 137.78072573 -32.23263038 141.01528572 -34.24047852 144.30200195 C-34.63686523 144.9563623 -35.03325195 145.61072266 -35.44165039 146.28491211 C-45.18132569 162.30534913 -45.18132569 162.30534913 -47.05297852 164.17700195 C-56.02245571 163.91874458 -64.21969985 160.68877095 -72.61547852 157.80200195 C-74.09632606 157.30119621 -75.57744433 156.80119026 -77.05883789 156.30200195 C-83.76704167 154.03179761 -90.42949949 151.68526268 -97.05297852 149.17700195 C-97.88829102 148.86375977 -98.72360352 148.55051758 -99.58422852 148.2277832 C-101.40714518 147.54418945 -103.23006185 146.8605957 -105.05297852 146.17700195 C-103.78606379 142.80817734 -102.34183055 139.81354197 -100.43579102 136.76293945 C-99.65884888 135.51347534 -99.65884888 135.51347534 -98.86621094 134.23876953 C-98.30909424 133.35213623 -97.75197754 132.46550293 -97.17797852 131.55200195 C-96.5957251 130.61831787 -96.01347168 129.68463379 -95.41357422 128.72265625 C-91.23240484 122.02746035 -87.01019014 115.35828457 -82.78369141 108.69165039 C-76.41970876 98.63075265 -70.21786543 88.46948871 -63.98852539 78.32495117 C-61.12366733 73.66558187 -58.24598381 69.0142092 -55.36547852 64.36450195 C-54.84163574 63.51847412 -54.31779297 62.67244629 -53.77807617 61.80078125 C-51.11560942 57.50199822 -48.449507 53.20550622 -45.77954102 48.91137695 C-44.68301751 47.14585711 -43.58666278 45.38023244 -42.49047852 43.61450195 C-41.95648438 42.75542236 -41.42249023 41.89634277 -40.87231445 41.01123047 C-38.13013914 36.58537284 -35.42670922 32.14088439 -32.77954102 27.6574707 C-32.2478833 26.75907471 -31.71622559 25.86067871 -31.16845703 24.93505859 C-30.16793198 23.23868024 -29.17316555 21.5388856 -28.18554688 19.83496094 C-24.34312167 13.31978097 -20.34242612 6.84474012 -13.42797852 3.30200195 C-12.69321289 2.91270508 -11.95844727 2.5234082 -11.20141602 2.12231445 C-7.43934958 0.46700522 -4.09675149 0.04573965 0 0 Z " fill="#E70310" transform="translate(384.052978515625,992.822998046875)"/>
<path d="M0 0 C1.35180136 0.00084912 2.7036041 0.00036559 4.05540466 -0.00132751 C7.67648659 -0.00217779 11.29726192 0.01528821 14.91827345 0.03639436 C18.72053382 0.05532526 22.52280353 0.05692438 26.32510376 0.06047058 C33.50352086 0.06974337 40.68179862 0.09429155 47.86015475 0.12451905 C56.04168247 0.15821277 64.22321733 0.17458646 72.40479732 0.18960536 C89.2147832 0.22084622 106.02457747 0.27579752 122.83447266 0.34057617 C122.83447266 11.89057617 122.83447266 23.44057617 122.83447266 35.34057617 C110.27197266 35.77807617 110.27197266 35.77807617 106.35180664 35.90869141 C104.79441772 35.96585327 104.79441772 35.96585327 103.20556641 36.02416992 C102.15296631 36.06082764 101.10036621 36.09748535 100.01586914 36.13525391 C96.82011927 36.29489684 96.82011927 36.29489684 93.62785339 36.83207703 C89.7303715 37.35453084 85.88363377 37.57060577 81.95898438 37.68188477 C81.20521515 37.70647263 80.45144592 37.73106049 79.67483521 37.75639343 C78.05057452 37.80918676 76.42626208 37.86040717 74.80190659 37.91019821 C72.22900282 37.99010556 69.65639454 38.07650515 67.08377075 38.16494751 C59.77360913 38.41602992 52.46337194 38.6628304 45.15234375 38.88745117 C40.66992441 39.02563639 36.18814789 39.17752328 31.70648575 39.33833694 C30.00264315 39.3968567 28.29861619 39.45024639 26.59444809 39.49836349 C24.21271393 39.56612339 21.83218777 39.65132505 19.45117188 39.74047852 C18.40059601 39.76402153 18.40059601 39.76402153 17.32879639 39.78804016 C11.88056791 40.02097636 8.65647633 41.5185725 4.83447266 45.34057617 C4.55458193 48.3250952 4.4181233 51.16613556 4.39697266 54.15307617 C4.34766602 55.36447266 4.34766602 55.36447266 4.29736328 56.6003418 C4.26074515 60.66495414 4.5380851 62.85387661 6.68994141 66.38745117 C11.32660325 69.26736536 15.2291735 68.95409531 20.58447266 68.77807617 C21.69338867 68.76067383 22.80230469 68.74327148 23.94482422 68.7253418 C36.62378093 68.45999202 49.29313641 67.71601772 61.95678711 67.06420898 C80.53802434 66.11391194 80.53802434 66.11391194 89.77197266 66.02807617 C90.57924805 66.01067383 91.38652344 65.99327148 92.21826172 65.9753418 C102.02886508 65.98378829 111.06824662 69.3985414 118.83447266 75.34057617 C126.94990485 83.59268933 128.26139979 92.48276632 128.24462891 103.5925293 C128.23834473 104.34284424 128.23206055 105.09315918 128.22558594 105.86621094 C128.20958184 108.13758099 128.2254451 110.40715274 128.24462891 112.6784668 C128.26944493 128.38486031 124.94080031 138.82673667 114.20947266 150.46557617 C109.08573154 155.40883326 102.96246837 158.80187442 96.83447266 162.34057617 C96.01720703 162.86264648 95.19994141 163.3847168 94.35791016 163.92260742 C88.93618351 166.96918137 82.75831586 168.51156185 76.83447266 170.34057617 C75.60728516 170.72084961 74.38009766 171.10112305 73.11572266 171.49291992 C62.48200962 174.65418527 51.65412612 177.04131839 40.83447266 179.46557617 C40.08082428 179.63570221 39.3271759 179.80582825 38.5506897 179.98110962 C23.40596454 183.38741252 8.20301144 186.10405729 -7.22802734 187.84057617 C-9.35434592 188.08783022 -11.48064748 188.33523066 -13.60693359 188.58276367 C-14.67959473 188.70619141 -15.75225586 188.82961914 -16.85742188 188.95678711 C-22.46244158 189.60705213 -28.06371443 190.28833772 -33.66552734 190.96557617 C-36.61644495 191.32182189 -39.56744692 191.67686871 -42.51928711 192.02539062 C-44.19513564 192.2249958 -45.87023802 192.43106094 -47.54418945 192.64599609 C-52.96009386 193.31406574 -58.27433668 193.46142842 -63.72802734 193.40307617 C-64.95489258 193.39630859 -64.95489258 193.39630859 -66.20654297 193.3894043 C-68.19290381 193.37778815 -70.17922615 193.35986065 -72.16552734 193.34057617 C-70.97668878 190.01633565 -69.83487067 187.71706469 -67.35302734 185.21557617 C-58.25636942 174.96519578 -55.83487871 160.56603598 -55.16552734 147.34057617 C-51.57262902 146.54679631 -48.10238135 146.13188109 -44.43115234 145.91088867 C-43.31256836 145.83942627 -42.19398438 145.76796387 -41.04150391 145.69433594 C-39.84493164 145.61884521 -38.64835938 145.54335449 -37.41552734 145.46557617 C-24.94460894 144.62584615 -12.58819505 143.33104951 -0.19482422 141.72729492 C2.81841756 141.34262576 5.83348623 140.97903065 8.85009766 140.62182617 C19.30553004 139.37544941 29.73683404 137.98523722 40.14697266 136.40307617 C41.154375 136.25749268 42.16177734 136.11190918 43.19970703 135.96191406 C51.0180875 134.73362724 59.34135212 133.339824 65.48681641 128.06323242 C67.25338103 124.49425984 67.40091856 121.7515984 67.39697266 117.77807617 C67.42984375 115.82708008 67.42984375 115.82708008 67.46337891 113.83666992 C67.12405639 110.26567974 67.12405639 110.26567974 64.75634766 107.90307617 C61.22157648 106.01282421 58.42968237 105.77958401 54.52197266 105.90307617 C53.76343994 105.91338867 53.00490723 105.92370117 52.22338867 105.93432617 C43.51269252 106.16300191 34.85221544 107.16982527 26.18914795 108.05288696 C13.04004342 109.38056092 0.04598841 109.73074611 -13.16552734 109.34057617 C-14.47650391 109.32124023 -15.78748047 109.3019043 -17.13818359 109.28198242 C-29.9610029 108.77762838 -41.0574434 103.85530108 -49.87255859 94.53588867 C-58.70903428 83.75315126 -59.95433947 72.45832529 -59.76245117 59.05957031 C-59.72812506 56.41061731 -59.7418478 53.76501271 -59.76123047 51.1159668 C-59.75114247 38.43980844 -58.86024028 26.3904025 -50.20849609 16.33666992 C-36.57330783 3.01433493 -18.43826314 -0.16159026 0 0 Z " fill="#7EB73D" transform="translate(849.16552734375,992.659423828125)"/>
<path d="M0 0 C18.97592335 -0.12032643 18.97592335 -0.12032643 27.078125 -0.14648438 C32.6019762 -0.16440275 38.1256779 -0.18557761 43.64941406 -0.22631836 C48.10386669 -0.25896611 52.55815895 -0.27686446 57.01272202 -0.28463173 C58.71035155 -0.29016552 60.40797252 -0.30097173 62.1055336 -0.31719017 C64.4873766 -0.33903674 66.86856086 -0.34196395 69.25048828 -0.34057617 C69.94892349 -0.351362 70.6473587 -0.36214783 71.36695862 -0.3732605 C77.17873658 -0.336732 81.11756557 1.23972022 85.34765625 5.1953125 C87.46372372 8.78712442 87.55479551 11.8264131 87.4375 15.875 C87.44458984 16.55691406 87.45167969 17.23882813 87.45898438 17.94140625 C87.39689291 22.9564861 86.29334321 26.53667189 84 31 C79.64132992 35.0862532 75.29759045 35.14245366 69.59106445 35.11352539 C68.83960144 35.11367142 68.08813843 35.11381744 67.31390381 35.1139679 C64.83033358 35.11327129 62.34683837 35.10549067 59.86328125 35.09765625 C58.14121034 35.09579118 56.41913889 35.09436769 54.69706726 35.09336853 C50.16460709 35.0895504 45.63217896 35.07972611 41.09973145 35.06866455 C35.66152356 35.05663681 30.22330496 35.05204483 24.78508759 35.04621124 C16.52336944 35.036514 8.2617216 35.01735251 0 35 C0 23.45 0 11.9 0 0 Z " fill="#FAFCFD" transform="translate(613,1110)"/>
<path d="M0 0 C18.39657388 -0.16043524 18.39657388 -0.16043524 26.26953125 -0.1953125 C31.63085874 -0.21917621 36.99191162 -0.24733397 42.35302734 -0.30175781 C46.67782592 -0.34538405 51.00232981 -0.36917239 55.32733154 -0.37950897 C56.97308996 -0.38687036 58.61883319 -0.40124534 60.26446533 -0.42292023 C76.42461141 -0.62720331 76.42461141 -0.62720331 83 4 C86.33177217 8.60101871 86.51928421 13.01364244 86.5 18.5 C86.52835938 19.23347656 86.55671875 19.96695312 86.5859375 20.72265625 C86.59985073 24.61140408 86.22672705 27.25949825 83.84375 30.40625 C78.85439432 34.956981 74.01280642 35.24920137 67.43408203 35.22705078 C66.70168808 35.22734283 65.96929413 35.22763489 65.21470642 35.22793579 C62.81228471 35.22655094 60.41017952 35.21102997 58.0078125 35.1953125 C56.33487111 35.19157936 54.66192752 35.18873381 52.98898315 35.18673706 C48.59954728 35.1791243 44.2102451 35.15949619 39.82086182 35.1373291 C34.54696414 35.11320976 29.2730216 35.10407846 23.99908447 35.09242249 C15.99929684 35.07307031 7.99980221 35.03473141 0 35 C0 23.45 0 11.9 0 0 Z " fill="#F7FAFD" transform="translate(613,1035)"/>
<path d="M0 0 C0.66 0 1.32 0 2 0 C2.39678955 0.9293335 2.7935791 1.85866699 3.20239258 2.81616211 C4.72848693 6.38936502 6.25611319 9.96191114 7.78439331 13.53417969 C8.46815455 15.132552 9.15168838 16.73102161 9.83499146 18.32958984 C13.32880492 26.50062027 16.83033536 34.66685652 20.4453125 42.78515625 C20.95473389 43.93056885 21.46415527 45.07598145 21.98901367 46.25610352 C22.9373475 48.37990455 23.89045641 50.50158135 24.84887695 52.62084961 C25.47862427 54.0305603 25.47862427 54.0305603 26.12109375 55.46875 C26.4864624 56.27763672 26.85183105 57.08652344 27.22827148 57.91992188 C28 60 28 60 28 63 C17.42122042 62.66201982 6.98470629 61.45249501 -3.5 60.0625 C-4.79953613 59.89266602 -6.09907227 59.72283203 -7.43798828 59.54785156 C-13.74693125 58.69231881 -19.8688035 57.72633437 -26 56 C-25.37558619 51.76987849 -23.91029929 48.48634055 -21.97265625 44.6875 C-21.66779297 44.0847525 -21.36292969 43.482005 -21.04882812 42.86099243 C-20.39611922 41.57166106 -19.74077911 40.28365889 -19.08303833 38.99688721 C-17.36591271 35.63698776 -15.66804515 32.26738026 -13.96875 28.8984375 C-13.62981216 28.22759125 -13.29087433 27.556745 -12.94166565 26.86557007 C-8.46577712 17.9880301 -4.22204699 9.00041077 0 0 Z " fill="#FDF8F8" transform="translate(402,1037)"/>
<path d="M0 0 C0.99 0.33 1.98 0.66 3 1 C-1.05358048 5.07833459 -5.11046118 9.15334693 -9.17041016 13.2253418 C-10.55055043 14.61050489 -11.92979107 15.99656497 -13.30810547 17.38354492 C-15.29157376 19.37916857 -17.2782751 21.371524 -19.265625 23.36328125 C-19.87931946 23.98213699 -20.49301392 24.60099274 -21.12530518 25.23860168 C-23.94733031 28.06099413 -26.69723193 30.73024056 -30 33 C-30.66 32.67 -31.32 32.34 -32 32 C-21.44 21.44 -10.88 10.88 0 0 Z " fill="#3FA1F5" transform="translate(533,233)"/>
<path d="M0 0 C0.66 0.33 1.32 0.66 2 1 C-3.28980922 7.62580199 -9.35357398 12.77522096 -16 18 C-17.89663335 19.51983552 -19.79251637 21.04060805 -21.6875 22.5625 C-23.12449468 23.70896699 -24.56179506 24.8550516 -26 26 C-26.99 25.34 -27.98 24.68 -29 24 C-28.57291748 23.65332275 -28.14583496 23.30664551 -27.70581055 22.94946289 C-22.80212015 18.96846394 -17.90058866 14.98481629 -13 11 C-12.40429199 10.51595703 -11.80858398 10.03191406 -11.19482422 9.53320312 C-9.67058134 8.29415878 -8.14773489 7.05339714 -6.625 5.8125 C-5.77164063 5.11769531 -4.91828125 4.42289062 -4.0390625 3.70703125 C-1.95193734 2.01079593 -1.95193734 2.01079593 0 0 Z " fill="#3FA1F6" transform="translate(728,76)"/>
<path d="M0 0 C0.66 0.33 1.32 0.66 2 1 C1.01 7.27 0.02 13.54 -1 20 C-1.33 20 -1.66 20 -2 20 C-2 16.37 -2 12.74 -2 9 C-2.66 9 -3.32 9 -4 9 C-2.80100302 5.9168649 -1.52299523 2.93720508 0 0 Z " fill="#F14A50" transform="translate(374,437)"/>
<path d="M0 0 C-4.55522906 2.35615296 -7.8776673 3 -13 3 C-13.99 3.33 -14.98 3.66 -16 4 C-18.00875442 3.72428861 -20.01178687 3.39764263 -22 3 C-22 2.67 -22 2.34 -22 2 C-7.40318907 -0.29612756 -7.40318907 -0.29612756 0 0 Z " fill="#9ECC71" transform="translate(849,1135)"/>
<path d="M0 0 C0.66 0.33 1.32 0.66 2 1 C0.65117186 5.04648443 -1.34826069 5.95502599 -5 8 C-5.99 7.67 -6.98 7.34 -8 7 C-5.36 4.69 -2.72 2.38 0 0 Z " fill="#8AC14E" transform="translate(760,483)"/>
<path d="M0 0 C0.66 0 1.32 0 2 0 C2.33 1.32 2.66 2.64 3 4 C0.03 6.475 0.03 6.475 -3 9 C-2.01 6.03 -1.02 3.06 0 0 Z " fill="#8BC053" transform="translate(846,365)"/>
<path d="M0 0 C0.33 0.99 0.66 1.98 1 3 C-0.65 4.65 -2.3 6.3 -4 8 C-4.99 7.67 -5.98 7.34 -7 7 C-4.69 4.69 -2.38 2.38 0 0 Z " fill="#82BB42" transform="translate(770,474)"/>
<path d="M0 0 C0.66 0.33 1.32 0.66 2 1 C0.02 3.31 -1.96 5.62 -4 8 C-4.99 7.34 -5.98 6.68 -7 6 C-4.69 4.02 -2.38 2.04 0 0 Z " fill="#86BE48" transform="translate(710,524)"/>
<path d="M0 0 C0.33 0 0.66 0 1 0 C1.33 2.97 1.66 5.94 2 9 C0.35 8.01 -1.3 7.02 -3 6 C-2.34 5.67 -1.68 5.34 -1 5 C-0.34444881 2.47266765 -0.34444881 2.47266765 0 0 Z " fill="#5BB3F9" transform="translate(570,781)"/>
<path d="M0 0 C2.35953094 2.35953094 2.49141413 3.77895617 3 7 C2.01 7 1.02 7 0 7 C-0.38133299 5.0085944 -0.71325582 3.00720923 -1 1 C-0.67 0.67 -0.34 0.34 0 0 Z " fill="#ED2930" transform="translate(513,1144)"/>
<path d="M0 0 C2.31 0.66 4.62 1.32 7 2 C5.3125 3.125 5.3125 3.125 3 4 C0.25 3.125 0.25 3.125 -2 2 C-1.34 1.34 -0.68 0.68 0 0 Z " fill="#EF2831" transform="translate(551,911)"/>
<path d="M0 0 C1.98 0.66 3.96 1.32 6 2 C6 2.99 6 3.98 6 5 C3.69 4.01 1.38 3.02 -1 2 C-0.67 1.34 -0.34 0.68 0 0 Z " fill="#EC1721" transform="translate(517,895)"/>
<path d="M0 0 C0.66 0.99 1.32 1.98 2 3 C1.01 4.32 0.02 5.64 -1 7 C-1.99 6.67 -2.98 6.34 -4 6 C-2.68 4.02 -1.36 2.04 0 0 Z " fill="#EB1D24" transform="translate(291,1118)"/>
<path d="M0 0 C0.66 0 1.32 0 2 0 C1.34 3.3 0.68 6.6 0 10 C-2 6 -2 6 -1.125 2.75 C-0.75375 1.8425 -0.3825 0.935 0 0 Z " fill="#49A8F8" transform="translate(757,1061)"/>
</svg>
